<svg id="visual" viewBox="0 0 960 300" width="960" height="300" xmlns="http://www.w3.org/2000/svg" xmlns:xlink="http://www.w3.org/1999/xlink" version="1.1"><rect x="0" y="0" width="960" height="300" fill="#001220"></rect><defs><linearGradient id="grad1_0" x1="68.8%" y1="0%" x2="100%" y2="100%"><stop offset="-14.000000000000007%" stop-color="#ff0066" stop-opacity="1"></stop><stop offset="114.00000000000001%" stop-color="#ff0066" stop-opacity="1"></stop></linearGradient></defs><defs><linearGradient id="grad1_1" x1="68.8%" y1="0%" x2="100%" y2="100%"><stop offset="-14.000000000000007%" stop-color="#ff0066" stop-opacity="1"></stop><stop offset="114.00000000000001%" stop-color="#623078" stop-opacity="1"></stop></linearGradient></defs><defs><linearGradient id="grad1_2" x1="68.8%" y1="0%" x2="100%" y2="100%"><stop offset="-14.000000000000007%" stop-color="#001220" stop-opacity="1"></stop><stop offset="114.00000000000001%" stop-color="#623078" stop-opacity="1"></stop></linearGradient></defs><defs><linearGradient id="grad2_0" x1="0%" y1="0%" x2="31.3%" y2="100%"><stop offset="-14.000000000000007%" stop-color="#ff0066" stop-opacity="1"></stop><stop offset="114.00000000000001%" stop-color="#ff0066" stop-opacity="1"></stop></linearGradient></defs><defs><linearGradient id="grad2_1" x1="0%" y1="0%" x2="31.3%" y2="100%"><stop offset="-14.000000000000007%" stop-color="#623078" stop-opacity="1"></stop><stop offset="114.00000000000001%" stop-color="#ff0066" stop-opacity="1"></stop></linearGradient></defs><defs><linearGradient id="grad2_2" x1="0%" y1="0%" x2="31.3%" y2="100%"><stop offset="-14.000000000000007%" stop-color="#623078" stop-opacity="1"></stop><stop offset="114.00000000000001%" stop-color="#001220" stop-opacity="1"></stop></linearGradient></defs><g transform="translate(960, 0)"><path d="M0 225C-21.9 218.4 -43.9 211.8 -67.1 206.4C-90.2 200.9 -114.7 196.5 -132.3 182C-149.8 167.5 -160.6 142.8 -165.8 120.5C-171.1 98.1 -170.8 78.1 -179.7 58.4C-188.7 38.7 -206.8 19.4 -225 0L0 0Z" fill="#1c2853"></path><path d="M0 150C-14.6 145.6 -29.3 141.2 -44.7 137.6C-60.2 133.9 -76.4 131 -88.2 121.4C-99.9 111.7 -107.1 95.2 -110.6 80.3C-114.1 65.4 -113.9 52.1 -119.8 38.9C-125.8 25.8 -137.9 12.9 -150 0L0 0Z" fill="#b51f80"></path><path d="M0 75C-7.3 72.8 -14.6 70.6 -22.4 68.8C-30.1 67 -38.2 65.5 -44.1 60.7C-49.9 55.8 -53.5 47.6 -55.3 40.2C-57 32.7 -56.9 26 -59.9 19.5C-62.9 12.9 -68.9 6.5 -75 0L0 0Z" fill="#ff0066"></path></g><g transform="translate(0, 300)"><path d="M0 -225C23.6 -220.9 47.1 -216.9 66.4 -204.5C85.7 -192.1 100.7 -171.3 111.1 -152.9C121.4 -134.5 127.1 -118.4 146.4 -106.4C165.7 -94.4 198.6 -86.6 214 -69.5C229.3 -52.5 227.2 -26.2 225 0L0 0Z" fill="#1c2853"></path><path d="M0 -150C15.7 -147.3 31.4 -144.6 44.3 -136.3C57.2 -128.1 67.2 -114.2 74.1 -101.9C81 -89.7 84.8 -78.9 97.6 -70.9C110.5 -62.9 132.4 -57.7 142.7 -46.4C152.9 -35 151.4 -17.5 150 0L0 0Z" fill="#b51f80"></path><path d="M0 -75C7.9 -73.6 15.7 -72.3 22.1 -68.2C28.6 -64 33.6 -57.1 37 -51C40.5 -44.8 42.4 -39.5 48.8 -35.5C55.2 -31.5 66.2 -28.9 71.3 -23.2C76.4 -17.5 75.7 -8.7 75 0L0 0Z" fill="#ff0066"></path></g></svg>