<svg id="visual" viewBox="0 0 960 300" width="960" height="300" xmlns="http://www.w3.org/2000/svg" xmlns:xlink="http://www.w3.org/1999/xlink" version="1.1"><rect x="0" y="0" width="960" height="300" fill="#FF0066"></rect><g transform="translate(486.31622520073097 150.6025532295767)"><path d="M79.4 -100C95.8 -80.9 97.2 -49.1 100.5 -19.3C103.8 10.4 109 38.2 99.2 59.3C89.4 80.3 64.6 94.7 37.4 105.9C10.3 117.1 -19.2 125.3 -36.6 113.4C-54 101.5 -59.5 69.5 -76 42.9C-92.5 16.3 -120.1 -4.9 -117.3 -20.7C-114.6 -36.5 -81.4 -47 -56.8 -64.6C-32.1 -82.3 -16.1 -107.2 7.7 -116.3C31.5 -125.5 63 -119.1 79.4 -100" fill="#BB004B"></path></g></svg>