<svg id="visual" viewBox="0 0 960 300" width="960" height="300" xmlns="http://www.w3.org/2000/svg" xmlns:xlink="http://www.w3.org/1999/xlink" version="1.1"><rect x="0" y="0" width="960" height="300" fill="#FF0066"></rect><g transform="translate(488.29708088983415 129.26888849098708)"><path d="M46.4 -57C60.7 -43.3 73.2 -29.2 84.4 -8.6C95.5 12.1 105.3 39.3 99.6 65.3C93.9 91.3 72.6 116.1 45.8 125.9C19 135.6 -13.2 130.3 -42.7 118.9C-72.2 107.5 -98.9 90 -110.5 65.8C-122.1 41.6 -118.7 10.6 -109.3 -15.3C-100 -41.1 -84.7 -61.9 -65.5 -74.7C-46.3 -87.5 -23.1 -92.2 -3.5 -88C16.1 -83.8 32.1 -70.6 46.4 -57" fill="#BB004B"></path></g></svg>