<svg id="visual" viewBox="0 0 960 300" width="960" height="300" xmlns="http://www.w3.org/2000/svg" xmlns:xlink="http://www.w3.org/1999/xlink" version="1.1"><rect x="0" y="0" width="960" height="300" fill="#0f0f10"></rect><path d="M0 135L107 135L107 154L213 154L213 84L320 84L320 121L427 121L427 119L533 119L533 104L640 104L640 175L747 175L747 140L853 140L853 91L960 91L960 166L960 0L960 0L853 0L853 0L747 0L747 0L640 0L640 0L533 0L533 0L427 0L427 0L320 0L320 0L213 0L213 0L107 0L107 0L0 0Z" fill="#dd3f31"></path><path d="M0 119L107 119L107 145L213 145L213 117L320 117L320 69L427 69L427 144L533 144L533 115L640 115L640 102L747 102L747 101L853 101L853 76L960 76L960 149L960 0L960 0L853 0L853 0L747 0L747 0L640 0L640 0L533 0L533 0L427 0L427 0L320 0L320 0L213 0L213 0L107 0L107 0L0 0Z" fill="#e7363d"></path><path d="M0 75L107 75L107 92L213 92L213 83L320 83L320 93L427 93L427 60L533 60L533 58L640 58L640 75L747 75L747 85L853 85L853 62L960 62L960 43L960 0L960 0L853 0L853 0L747 0L747 0L640 0L640 0L533 0L533 0L427 0L427 0L320 0L320 0L213 0L213 0L107 0L107 0L0 0Z" fill="#f02a4a"></path><path d="M0 54L107 54L107 32L213 32L213 25L320 25L320 66L427 66L427 48L533 48L533 62L640 62L640 36L747 36L747 71L853 71L853 75L960 75L960 23L960 0L960 0L853 0L853 0L747 0L747 0L640 0L640 0L533 0L533 0L427 0L427 0L320 0L320 0L213 0L213 0L107 0L107 0L0 0Z" fill="#f81b57"></path><path d="M0 57L107 57L107 56L213 56L213 10L320 10L320 36L427 36L427 18L533 18L533 44L640 44L640 56L747 56L747 1L853 1L853 10L960 10L960 33L960 0L960 0L853 0L853 0L747 0L747 0L640 0L640 0L533 0L533 0L427 0L427 0L320 0L320 0L213 0L213 0L107 0L107 0L0 0Z" fill="#ff0066"></path></svg>