<svg id="visual" viewBox="0 0 960 300" width="960" height="300" xmlns="http://www.w3.org/2000/svg" xmlns:xlink="http://www.w3.org/1999/xlink" version="1.1"><rect x="0" y="0" width="960" height="300" fill="#0f0f10"></rect><path d="M0 99L137 109L274 87L411 115L549 124L686 97L823 110L960 119L960 0L823 0L686 0L549 0L411 0L274 0L137 0L0 0Z" fill="#f27e70"></path><path d="M0 79L137 78L274 64L411 100L549 77L686 79L823 64L960 99L960 0L823 0L686 0L549 0L411 0L274 0L137 0L0 0Z" fill="#eb6657"></path><path d="M0 75L137 55L274 51L411 61L549 63L686 65L823 66L960 78L960 0L823 0L686 0L549 0L411 0L274 0L137 0L0 0Z" fill="#e24d3e"></path><path d="M0 44L137 57L274 60L411 61L549 57L686 64L823 49L960 56L960 0L823 0L686 0L549 0L411 0L274 0L137 0L0 0Z" fill="#d13b2f"></path><path d="M0 33L137 41L274 40L411 41L549 32L686 43L823 26L960 39L960 0L823 0L686 0L549 0L411 0L274 0L137 0L0 0Z" fill="#ba332b"></path><path d="M0 18L137 24L274 14L411 25L549 16L686 14L823 29L960 25L960 0L823 0L686 0L549 0L411 0L274 0L137 0L0 0Z" fill="#a32c26"></path></svg>