<svg id="visual" viewBox="0 0 960 300" width="960" height="300" xmlns="http://www.w3.org/2000/svg" xmlns:xlink="http://www.w3.org/1999/xlink" version="1.1"><rect x="0" y="0" width="960" height="300" fill="#0f0f10"></rect><path d="M0 121L96 121L96 87L192 87L192 155L288 155L288 140L384 140L384 179L480 179L480 93L576 93L576 104L672 104L672 122L768 122L768 91L864 91L864 117L960 117L960 132L960 0L960 0L864 0L864 0L768 0L768 0L672 0L672 0L576 0L576 0L480 0L480 0L384 0L384 0L288 0L288 0L192 0L192 0L96 0L96 0L0 0Z" fill="#ff0066"></path><path d="M0 92L96 92L96 92L192 92L192 119L288 119L288 87L384 87L384 67L480 67L480 104L576 104L576 76L672 76L672 77L768 77L768 91L864 91L864 111L960 111L960 128L960 0L960 0L864 0L864 0L768 0L768 0L672 0L672 0L576 0L576 0L480 0L480 0L384 0L384 0L288 0L288 0L192 0L192 0L96 0L96 0L0 0Z" fill="#f81b57"></path><path d="M0 44L96 44L96 65L192 65L192 55L288 55L288 63L384 63L384 97L480 97L480 58L576 58L576 97L672 97L672 95L768 95L768 43L864 43L864 94L960 94L960 45L960 0L960 0L864 0L864 0L768 0L768 0L672 0L672 0L576 0L576 0L480 0L480 0L384 0L384 0L288 0L288 0L192 0L192 0L96 0L96 0L0 0Z" fill="#f02a4a"></path><path d="M0 32L96 32L96 53L192 53L192 54L288 54L288 42L384 42L384 65L480 65L480 75L576 75L576 77L672 77L672 54L768 54L768 38L864 38L864 36L960 36L960 48L960 0L960 0L864 0L864 0L768 0L768 0L672 0L672 0L576 0L576 0L480 0L480 0L384 0L384 0L288 0L288 0L192 0L192 0L96 0L96 0L0 0Z" fill="#e7363d"></path><path d="M0 3L96 3L96 43L192 43L192 44L288 44L288 49L384 49L384 18L480 18L480 46L576 46L576 46L672 46L672 22L768 22L768 38L864 38L864 29L960 29L960 29L960 0L960 0L864 0L864 0L768 0L768 0L672 0L672 0L576 0L576 0L480 0L480 0L384 0L384 0L288 0L288 0L192 0L192 0L96 0L96 0L0 0Z" fill="#dd3f31"></path></svg>